<?xml version="1.0" encoding="UTF-8"?>
<!DOCTYPE svg PUBLIC "-//W3C//DTD SVG 1.1//EN" "http://www.w3.org/Graphics/SVG/1.1/DTD/svg11.dtd">
<svg xmlns="http://www.w3.org/2000/svg" version="1.1" width="512px" height="512px" style="shape-rendering:geometricPrecision; text-rendering:geometricPrecision; image-rendering:optimizeQuality; fill-rule:evenodd; clip-rule:evenodd" xmlns:xlink="http://www.w3.org/1999/xlink">
<g><path style="opacity:0.961" fill="#e5e5e5" d="M 233.5,-0.5 C 248.833,-0.5 264.167,-0.5 279.5,-0.5C 379.378,12.5222 450.211,64.8555 492,156.5C 523.078,239.387 515.411,318.387 469,393.5C 412.578,473.624 335.078,511.458 236.5,507C 201.921,503.981 169.087,494.814 138,479.5C 97.3208,489.96 56.8208,500.627 16.5,511.5C 13.1667,511.5 9.83333,511.5 6.5,511.5C 0.8498,507.673 -0.983534,502.34 1,495.5C 11.6303,455.943 22.4637,416.443 33.5,377C -0.300168,312.498 -6.80017,245.331 14,175.5C 40.4904,100.009 90.6571,46.8425 164.5,16C 186.942,7.61637 209.942,2.11637 233.5,-0.5 Z"/></g>
<g><path style="opacity:1" fill="#fefefe" d="M 236.5,10.5 C 340.451,6.87639 418.618,49.5431 471,138.5C 506.012,208.262 508.678,279.262 479,351.5C 442.331,428.442 382.164,475.609 298.5,493C 242.633,501.894 189.633,493.394 139.5,467.5C 96.8302,478.501 54.1636,489.501 11.5,500.5C 22.5214,458.599 33.8548,416.766 45.5,375C 12.2688,314.589 4.76884,251.089 23,184.5C 48.0511,108.115 97.8844,54.9486 172.5,25C 193.352,17.3998 214.686,12.5665 236.5,10.5 Z"/></g>
<g><path style="opacity:1" fill="#64b161" d="M 240.5,51.5 C 326.742,49.0347 391.575,84.7014 435,158.5C 468.106,226.203 466.106,292.869 429,358.5C 379.947,431.432 311.447,462.932 223.5,453C 196.444,448.43 171.444,438.763 148.5,424C 147.333,423.833 146.167,423.667 145,423.5C 120.339,429.29 95.8389,435.623 71.5,442.5C 70.3691,440.926 70.2025,439.259 71,437.5C 77.5974,414.799 83.764,391.965 89.5,369C 72.2386,341.561 61.0719,311.728 56,279.5C 48.7952,190.071 83.2952,122.238 159.5,76C 184.996,62.3827 211.996,54.216 240.5,51.5 Z"/></g>
<g><path style="opacity:1" fill="#fefefe" d="M 164.5,141.5 C 172.917,141.094 181.251,141.594 189.5,143C 193.208,146.91 196.042,151.41 198,156.5C 204.635,171.743 210.468,187.243 215.5,203C 215.348,206.504 214.182,209.671 212,212.5C 205.997,219.854 200.497,227.521 195.5,235.5C 214.443,272.6 243.443,298.766 282.5,314C 286.207,314.996 289.541,314.33 292.5,312C 300.123,302.042 308.123,292.375 316.5,283C 320.294,282.717 323.961,283.383 327.5,285C 345.184,292.925 362.35,301.758 379,311.5C 381.759,336.154 371.926,353.654 349.5,364C 336.332,369.268 322.666,370.934 308.5,369C 263.351,360.016 224.851,339.183 193,306.5C 171.646,284.132 153.979,259.132 140,231.5C 133.845,216.41 131.845,200.743 134,184.5C 138.335,165.761 148.501,151.428 164.5,141.5 Z"/></g>
</svg>
