<svg xmlns="http://www.w3.org/2000/svg" width="512" height="512" shape-rendering="geometricPrecision" text-rendering="geometricPrecision" image-rendering="optimizeQuality" fill-rule="evenodd" clip-rule="evenodd"><path fill="#e5e5e5" d="M233.5-.5h46c99.878 13.022 170.711 65.356 212.5 157 31.078 82.887 23.411 161.887-23 237-56.422 80.124-133.922 117.958-232.5 113.5-34.579-3.019-67.413-12.186-98.5-27.5-40.68 10.46-81.18 21.127-121.5 32h-10c-5.65-3.827-7.484-9.16-5.5-16A11934.89 11934.89 0 0133.5 377C-.3 312.498-6.8 245.331 14 175.5 40.49 100.009 90.657 46.843 164.5 16c22.442-8.384 45.442-13.884 69-16.5z" opacity=".961"/><path fill="#fefefe" d="M236.5 10.5c103.951-3.624 182.118 39.043 234.5 128 35.012 69.762 37.678 140.762 8 213-36.669 76.942-96.836 124.109-180.5 141.5-55.867 8.894-108.867.394-159-25.5l-128 33a8841.42 8841.42 0 0134-125.5C12.269 314.589 4.769 251.089 23 184.5 48.051 108.115 97.884 54.949 172.5 25c20.852-7.6 42.186-12.434 64-14.5z"/><path fill="#64b161" d="M240.5 51.5c86.242-2.465 151.075 33.201 194.5 107 33.106 67.703 31.106 134.369-6 200-49.053 72.932-117.553 104.432-205.5 94.5-27.056-4.57-52.056-14.237-75-29l-3.5-.5a1695.755 1695.755 0 00-73.5 19c-1.13-1.574-1.297-3.241-.5-5A1863.89 1863.89 0 0089.5 369c-17.261-27.439-28.428-57.272-33.5-89.5C48.795 190.071 83.295 122.238 159.5 76c25.496-13.617 52.496-21.784 81-24.5z"/><path fill="#fefefe" d="M164.5 141.5c8.417-.406 16.751.094 25 1.5 3.708 3.91 6.542 8.41 8.5 13.5a489.713 489.713 0 0117.5 46.5c-.152 3.504-1.318 6.671-3.5 9.5a226.23 226.23 0 00-16.5 23c18.943 37.1 47.943 63.266 87 78.5 3.707.996 7.041.33 10-2a496.025 496.025 0 0124-29c3.794-.283 7.461.383 11 2a535.718 535.718 0 0151.5 26.5c2.759 24.654-7.074 42.154-29.5 52.5-13.168 5.268-26.834 6.934-41 5-45.149-8.984-83.649-29.817-115.5-62.5-21.354-22.368-39.021-47.368-53-75-6.155-15.09-8.155-30.757-6-47 4.335-18.739 14.501-33.072 30.5-43z"/></svg>